# xmcd CD database file
#
# Track frame offsets:
#	150
#	12030
#	19910
#
# Disc length: 424 seconds
#
# Revision: 0
# Processed by: cddbd v1.5.1PL0 Copyright (c) Steve Scherf et al.
# Submitted via: CDex 1.51
#
DISCID=1601a603
DTITLE=小島麻由美 - 先生のお気に入り
DYEAR=1996
DGENRE=JPop
TTITLE0=先生のお気に入り
TTITLE1=ショートケーキのサンバ
TTITLE2=先生のお気に入り（オリジナル・カラオケ）
EXTD=YEAR: 1996
EXTT0=
EXTT1=
EXTT2=
PLAYORDER=
